<svg xmlns="http://www.w3.org/2000/svg" viewBox="0 0 100 100">
  <mask id="miolo">
    <rect width="100" height="100" fill="#FFFFFF"/>
    <path transform="translate(8.72 23.89) scale(0.128)" fill="#000000" d="M135.8 122.4C135 122.7 131.9 125 128.8 127.6C122.3 133.2 104.8 147.4 96.9 153.4C93.8 155.8 89.5 159.4 87.3 161.5C85.1 163.6 81.9 166.4 80.2 167.7C78.5 169 72.4 174 66.7 178.6C61 183.3 54.7 188.4 52.6 189.9C45.5 195.2 46.4 197.6 59.1 206.3C63 208.9 69.1 213.2 72.5 215.6C75.9 218.1 80.9 221.4 83.5 223.1C86.2 224.7 92.2 228.4 96.8 231.4C110.7 240.4 131.6 251.3 180.5 275C231.5 299.8 233.8 301 251.8 312.5C267.6 322.6 285.3 339.1 293.2 351.1C295.7 354.8 297.6 356.6 298.7 356.4C300.2 356.1 300.4 351.6 300.6 303C300.9 235.6 300.2 230.1 288.2 210.8C280 197.7 272.8 191 254.8 180.1C245.9 174.6 139.7 121.5 138.1 121.7C137.7 121.8 136.7 122 135.8 122.4M483.8 133.5C454.1 147.8 409.1 170.4 395.3 177.9C367.7 193.1 356.2 206.1 348.2 231.1L345.3 240.1 345.3 297C345.3 338.5 345.6 354.1 346.5 354.3C347.1 354.6 350.5 351 354.1 346.4C365.6 331.7 380 319.4 400.6 307C412.9 299.5 424.9 293.3 473.8 269.4C523.7 244.9 538.3 236.8 565.2 218.8C570.6 215.1 576.5 211.2 578.2 210.1C580 209 584.5 205.9 588.2 203.1C597.4 196.3 597.2 195.6 583.3 184.4C559.1 164.8 524.9 136.7 517.9 130.8C512.3 126 507.7 122.6 506.8 122.7C506.6 122.7 496.2 127.6 483.8 133.5"/>
  </mask>
  <circle cx="50" cy="50" r="50" fill="#FFFFFF" mask="url(#miolo)"/>
  <g transform="translate(8.72 23.89) scale(0.128)" fill-rule="evenodd">
    <path fill="#243C8C" d="M117.1 59.1C110.6 61.5 108.5 63 92.7 76.8C87.5 81.4 78.7 89 73.3 93.6C67.9 98.3 60.5 104.8 56.9 108C53.3 111.3 48.1 115.6 45.3 117.7C42.6 119.7 38.8 122.9 36.8 124.8C34.9 126.6 28.5 132.3 22.6 137.4C0 157 0.5 155.6 1.3 200.1C2.2 252.7 2.6 255.8 9.1 263.3C14.8 269.8 18.5 271.8 48.3 284.6C54.4 287.2 61.4 290.3 63.8 291.4C76.4 297.3 98.2 306.9 100.6 307.6C102.1 308.1 109.9 311.5 117.8 315.2C125.8 318.8 136.2 323.4 140.8 325.3C145.5 327.2 152 330 155.3 331.6C161.6 334.6 184.8 344.9 195.8 349.6C202.5 352.4 225.9 363.4 231.3 366.3C240.7 371.2 267.9 386.2 270.8 388.1C272.8 389.3 277.7 392.2 281.8 394.6C286 397 292.4 400.6 296 402.8C303.2 406.9 307.2 407.6 308.2 405.1C308.6 404.2 308.8 360.8 308.8 308.6C308.8 206 309 210.4 303.4 193.3C300 183 295.7 173.8 290.7 166.5C282.9 154.9 259.6 133.3 246.1 125.1C244.3 124 239.8 121 236.1 118.5C226.1 111.6 210.1 101.5 203.3 97.7C200 95.8 193.5 92 188.8 89.1C155.4 68.6 140.8 60.6 132.9 58.2C126 56.2 124.6 56.3 117.1 59.1M135.8 122.4C135 122.7 131.9 125 128.8 127.6C122.3 133.2 104.8 147.4 96.9 153.4C93.8 155.8 89.5 159.4 87.3 161.5C85.1 163.6 81.9 166.4 80.2 167.7C78.5 169 72.4 174 66.7 178.6C61 183.3 54.7 188.4 52.6 189.9C45.5 195.2 46.4 197.6 59.1 206.3C63 208.9 69.1 213.2 72.5 215.6C75.9 218.1 80.9 221.4 83.5 223.1C86.2 224.7 92.2 228.4 96.8 231.4C110.7 240.4 131.6 251.3 180.5 275C231.5 299.8 233.8 301 251.8 312.5C267.6 322.6 285.3 339.1 293.2 351.1C295.7 354.8 297.6 356.6 298.7 356.4C300.2 356.1 300.4 351.6 300.6 303C300.9 235.6 300.2 230.1 288.2 210.8C280 197.7 272.8 191 254.8 180.1C245.9 174.6 139.7 121.5 138.1 121.7C137.7 121.8 136.7 122 135.8 122.4"/>
    <path fill="#1B7A70" d="M313.3 3.8C297.8 7.4 289.4 11.8 280.3 21.2C267.3 34.4 262.2 47.6 263.1 65.4C264.4 92.2 282.1 114.5 307.4 121.1C315.3 123.2 331.9 123.1 338.9 121C351.7 117.2 363.7 108.8 371.4 98C375.9 91.7 376.3 90.9 380.4 79.6C387.2 61.4 380.6 36.6 364.9 20.8C351.5 7.3 329.4 0 313.3 3.8M506.6 59C503.5 60.3 496.5 64.1 491 67.5C485.5 70.9 480.7 73.6 480.3 73.6C479.9 73.6 477.1 75.2 474 77C450.1 91.3 442.9 95.6 439.8 97.1C435.2 99.5 393.3 127.5 384.2 134.3C359.8 152.5 344.1 175 338 200.6C335.6 210.4 335.3 227.5 335.8 315.6L336.3 407.1 338.5 407.4C341.3 407.8 350.4 403.2 375.1 388.7C407.3 370 429.4 359 474.1 339.6C477.8 338 484.1 335.2 488.1 333.5C492.1 331.7 500.1 328.2 505.8 325.6C511.6 323 520.2 319.2 524.8 317.3C529.5 315.4 537.4 311.9 542.3 309.6C547.3 307.3 553.5 304.6 556.1 303.5C558.7 302.5 568.6 298.2 578.1 294.1C587.6 289.9 600.1 284.4 605.8 281.9C625.6 273.4 628.7 271.8 633.4 267.5C636.4 264.7 639.4 260.6 641.5 256.2L644.8 249.2 644.8 209C644.8 166.1 644.5 162.1 639.8 153.7C638.5 151.4 629.6 143 617.6 132.5C606.5 122.9 593.9 112 589.4 108.1C573.8 94.5 541.6 67.1 537.7 63.9C528.7 56.7 516.8 54.8 506.6 59M483.8 133.5C454.1 147.8 409.1 170.4 395.3 177.9C367.7 193.1 356.2 206.1 348.2 231.1L345.3 240.1 345.3 297C345.3 338.5 345.6 354.1 346.5 354.3C347.1 354.6 350.5 351 354.1 346.4C365.6 331.7 380 319.4 400.6 307C412.9 299.5 424.9 293.3 473.8 269.4C523.7 244.9 538.3 236.8 565.2 218.8C570.6 215.1 576.5 211.2 578.2 210.1C580 209 584.5 205.9 588.2 203.1C597.4 196.3 597.2 195.6 583.3 184.4C559.1 164.8 524.9 136.7 517.9 130.8C512.3 126 507.7 122.6 506.8 122.7C506.6 122.7 496.2 127.6 483.8 133.5"/>
  </g>
</svg>
